<?xml version="1.0" encoding="utf-8"?>
<!-- Generator: Adobe Illustrator 19.2.1, SVG Export Plug-In . SVG Version: 6.00 Build 0)  -->
<svg version="1.1" id="layer" xmlns="http://www.w3.org/2000/svg" xmlns:xlink="http://www.w3.org/1999/xlink" x="0px" y="0px"
	 viewBox="0 0 652 652" style="enable-background:new 0 0 652 652;" xml:space="preserve">
<style type="text/css">
	.st0{fill:#280277;}
	.st1{enable-background:new    ;}
</style>
<g id="Wordmark">
	<path class="st0" d="M402.4,341.3c-24.6,0-44.6-19.9-44.6-44.6s19.9-44.6,44.6-44.6c24.6,0,44.6,19.9,44.6,44.6l0,0
		C446.9,321.3,427,341.2,402.4,341.3z M402.4,269.9c-14.7,0-26.7,11.9-26.7,26.7c0,14.7,11.9,26.7,26.7,26.7s26.7-11.9,26.7-26.7
		l0,0C429.1,281.9,417.1,270,402.4,269.9z"/>
	<path class="st0" d="M500.6,341.2c-11.7,0.1-22.9-4.6-31.1-12.8c-17.3-17.3-17.1-45.6,0.5-63.2c8.4-8.4,19.7-13.2,31.6-13.3
		c11.8-0.2,23.2,4.4,31.6,12.8c3.5,3.5,3.5,9.1,0,12.6c-3.5,3.5-9.1,3.5-12.6,0l0,0c-10.3-10.3-27.3-10.1-37.9,0.5
		s-10.8,27.6-0.5,37.9s27.3,10.1,37.9-0.5c3.5-3.5,9.1-3.5,12.6,0s3.5,9.1,0,12.6C524.1,336.4,512.6,341.2,500.6,341.2z"/>
	<path class="st0" d="M115.5,340.4c-3.2,0-6.2-1.7-7.7-4.5l-32.5-56.6L50,322.5h19.5c4.9-0.1,9.1,3.7,9.2,8.7s-3.7,9.1-8.7,9.2
		c-0.2,0-0.3,0-0.5,0H34.5c-4.9,0-8.9-4-8.9-8.9c0-1.6,0.4-3.1,1.2-4.5l40.9-69.9c1.6-2.7,4.6-4.4,7.7-4.4h0.1
		c3.2,0,6.1,1.7,7.7,4.5l40.1,69.9c2.4,4.3,0.9,9.7-3.3,12.2C118.6,340,117,340.4,115.5,340.4z"/>
	<path class="st0" d="M251.7,340.8c-4.3,0-7.9-3.1-8.7-7.3l-8.7-46.6l-28.4,49.4c-1.6,2.7-4.5,4.5-7.7,4.5l0,0
		c-3.2,0-6.1-1.7-7.7-4.4l-28.6-49.1l-8.6,46.1c-0.8,4.9-5.4,8.2-10.2,7.4c-4.9-0.8-8.2-5.4-7.4-10.2c0-0.1,0.1-0.2,0.1-0.4l13-69.7
		c0.9-4.9,5.6-8.1,10.4-7.1c2.6,0.5,4.7,2.1,6.1,4.3l32.9,56.6l32.9-57.1c2.4-4.2,7.9-5.7,12.2-3.3c2.2,1.3,3.8,3.6,4.3,6.1
		l13.1,70.5c0.9,4.9-2.3,9.5-7.1,10.4C252.8,340.7,252.2,340.8,251.7,340.8z"/>
	<path class="st0" d="M338.6,340.7c-2.4,0-4.8-1-6.5-2.8l-24.7-26.2c-3.3-3.5-3.2-9,0.2-12.4c0,0,18.4-18.6,19.1-19.4
		c2.8-3.4,2.7-4.2,2.6-5.1c-0.4-3.7-4.1-4.6-7-4.6h-31.4v61.4c0.1,4.9-3.7,9.1-8.7,9.2c-4.9,0.1-9.1-3.7-9.2-8.7c0-0.2,0-0.3,0-0.5
		v-70.3c0-4.9,4-8.9,8.9-8.9h40.4c15.6,0,23.7,10.3,24.7,20.5c0.9,8.2-2.9,14-6.9,18.6c-0.8,1-13.9,14.2-13.9,14.2l18.7,19.9
		c3.4,3.6,3.2,9.2-0.4,12.6C343,339.8,340.8,340.7,338.6,340.7L338.6,340.7z"/>
	<path class="st0" d="M560.1,340.4c-4.9,0-8.9-4-8.9-8.9v-70.1c0-4.9,4-8.9,8.9-8.9c4.9,0,8.9,4,8.9,8.9v70.1
		C568.9,336.4,565,340.4,560.1,340.4z"/>
	<path class="st0" d="M616.6,340.4c-2.5,0-4.8-1-6.5-2.8l-32.8-35c-3.2-3.4-3.2-8.7,0-12.2l32.8-35.3c3.4-3.6,9-3.8,12.6-0.5
		s3.8,9,0.5,12.6l0,0L596,296.5l27.1,28.9c3.4,3.6,3.1,9.2-0.5,12.6C621,339.6,618.8,340.4,616.6,340.4z"/>
	<g class="st1">
		<path class="st0" d="M28.2,380.2v7.6h11.4v2.2H28.2v10.4h-2.7v-22.4h14.9v2.2H28.2V380.2z"/>
		<path class="st0" d="M54.2,400.5c-8.5,0-10.6-5.2-10.6-11.4s2.2-11.4,10.6-11.4c8.6,0,10.7,5.2,10.7,11.4
			C64.9,395.3,62.7,400.5,54.2,400.5z M54.2,380c-6.3,0-7.9,4-7.9,9.1c0,5.1,1.6,9.1,7.9,9.1c6.4,0,7.9-4,7.9-9.1
			C62,384.1,60.5,380,54.2,380z"/>
		<path class="st0" d="M75.9,391.3l11,9.1h-4l-10.7-9.4v9.4h-2.7v-22.4h7.8c8.3,0,9.1,3.9,9.1,6.8c0,5.7-4.6,6.5-8.9,6.5L75.9,391.3
			L75.9,391.3z M77.4,380.2h-5.2v8.9h5.3c5.6,0,6.1-2.4,6.1-4.4S83,380.2,77.4,380.2z"/>
		<path class="st0" d="M114.1,400.3v-19.1l-8.7,19.1h-2.7l-8.7-19.1v19.1h-2.7v-22.4h4.1l8.7,19.4l8.6-19.4h4.2v22.4H114.1z"/>
		<path class="st0" d="M122.2,400.3v-22.4h15.3v2.2h-12.6v7.6h11.6v2.2h-11.6v8.1h12.6v2.2L122.2,400.3L122.2,400.3z"/>
		<path class="st0" d="M148.2,391.3l11,9.1h-4l-10.7-9.4v9.4h-2.7v-22.4h7.7c8.3,0,9.1,3.9,9.1,6.8c0,5.7-4.6,6.5-8.9,6.5
			L148.2,391.3L148.2,391.3z M149.7,380.2h-5.2v8.9h5.3c5.6,0,6.1-2.4,6.1-4.4S155.4,380.2,149.7,380.2z"/>
		<path class="st0" d="M163.6,400.3v-22.4h2.7v20.1h9.4v2.2H163.6z"/>
		<path class="st0" d="M188.7,393.6v6.7H186v-6.7l-9-15.6h3.1l7.4,13.3l7.7-13.3h2.8L188.7,393.6z"/>
		<path class="st0" d="M223.9,400.3l-11.2-10.8v10.9H210v-22.4h2.7v10l10.7-10h3.7l-11.9,10.7l12.4,11.7L223.9,400.3L223.9,400.3z"
			/>
		<path class="st0" d="M246.6,400.3l-13.9-19.2v19.2H230v-22.4h3.5l13.8,19.1v-19.1h2.7v22.4H246.6z"/>
	</g>
	<g class="st1">
		<path class="st0" d="M265.6,400.5c-8.5,0-10.6-5.2-10.6-11.4s2.2-11.4,10.6-11.4c8.6,0,10.7,5.2,10.7,11.4
			C276.2,395.3,274.1,400.5,265.6,400.5z M265.6,380c-6.3,0-7.9,4-7.9,9.1c0,5.1,1.6,9.1,7.9,9.1c6.4,0,7.9-4,7.9-9.1
			C273.5,384.1,272,380,265.6,380z"/>
	</g>
	<g class="st1">
		<path class="st0" d="M304.2,400.3H301l-6.3-19.1l-6.1,19.1h-3.2l-7-22.4h2.8l5.9,19.4l6.1-19.4h3.2l6.2,19.4l5.9-19.4h2.8
			L304.2,400.3z"/>
		<path class="st0" d="M331.3,400.3l-13.9-19.2v19.2h-2.7v-22.4h3.5l13.8,19.1v-19.1h2.7v22.4H331.3z"/>
	</g>
	<g class="st1">
		<path class="st0" d="M365.8,400.3l-1.9-4.7h-12.2l-1.9,4.7h-2.9l9.2-22.4h3.6l9,22.4H365.8z M357.8,380l-5.4,13.5h10.7L357.8,380z
			"/>
	</g>
	<g class="st1">
		<path class="st0" d="M380.8,400.5c-7.4,0-10-3.4-10-8.2h2.7c0.1,3.2,1.8,5.7,7.2,5.7c5.2,0,6.6-2,6.6-4c0.1-6.1-15.7-2-15.7-9.8
			c0-4.2,3-6.6,8.9-6.6c5.9,0,9.2,2.8,9.2,7.9h-2.6c-0.2-3.9-2.6-5.6-6.7-5.6c-3.9,0-6.1,1.4-6.1,4.1c0,5.5,15.8,1.7,15.8,9.7
			C390,397,387.9,400.5,380.8,400.5z"/>
		<path class="st0" d="M411.3,380.2v20.1h-2.7v-20.1h-7v-2.2h16.7v2.2H411.3z"/>
		<path class="st0" d="M421.8,400.3v-22.4h2.7v22.4H421.8z"/>
		<path class="st0" d="M437.7,380.2v20.1H435v-20.1h-7v-2.2h16.7v2.2H437.7z"/>
		<path class="st0" d="M448.2,400.3v-22.4h2.7v20.1h9.4v2.2H448.2z"/>
		<path class="st0" d="M463.8,400.3v-22.4h15.3v2.2h-12.6v7.6h11.6v2.2h-11.6v8.1h12.6v2.2L463.8,400.3L463.8,400.3z"/>
		<path class="st0" d="M501.6,400.5c-7.4,0-10-3.4-10-8.2h2.7c0.1,3.2,1.8,5.7,7.2,5.7c5.2,0,6.6-2,6.6-4c0.1-6.1-15.7-2-15.7-9.8
			c0-4.2,3-6.6,8.9-6.6c5.9,0,9.2,2.8,9.2,7.9h-2.6c-0.2-3.9-2.6-5.6-6.7-5.6c-3.9,0-6.1,1.4-6.1,4.1c0,5.5,15.8,1.7,15.8,9.7
			C510.7,397,508.7,400.5,501.6,400.5z"/>
		<path class="st0" d="M525.4,400.5c-8.5,0-10.6-5.2-10.6-11.4s2.2-11.4,10.6-11.4c8.6,0,10.7,5.2,10.7,11.4
			C535.9,395.3,533.8,400.5,525.4,400.5z M525.4,380c-6.3,0-7.9,4-7.9,9.1c0,5.1,1.6,9.1,7.9,9.1c6.4,0,7.9-4,7.9-9.1
			C533.2,384.1,531.7,380,525.4,380z"/>
		<path class="st0" d="M559.4,390.2c0,7.4-2.9,10.3-9.6,10.3c-6.6,0-9.6-3-9.6-10.3v-12.2h2.7v12.2c0,5.5,1.7,8.1,6.8,8.1
			s6.8-2.6,6.8-8.1v-12.2h2.7v12.2H559.4z"/>
		<path class="st0" d="M570.7,391.3l11,9.1h-4l-10.6-9.4v9.4h-2.7v-22.4h7.8c8.3,0,9.1,3.9,9.1,6.8c0,5.7-4.6,6.5-8.9,6.5
			L570.7,391.3L570.7,391.3z M572.3,380.2h-5.2v8.9h5.3c5.6,0,6.1-2.4,6.1-4.4S577.9,380.2,572.3,380.2z"/>
		<path class="st0" d="M595.7,400.5c-8.2,0-10.3-5.2-10.3-11.4s2.1-11.4,10.3-11.4c7.2,0,10,4.2,10,8.9h-2.8
			c-0.1-3.7-2.1-6.6-7.2-6.6c-6.1,0-7.5,4-7.5,9.1c0,5.1,1.4,9.1,7.5,9.1c5.1,0,7.1-2.9,7.2-6.6h2.7
			C605.7,396.6,602.9,400.5,595.7,400.5z"/>
		<path class="st0" d="M610.2,400.3v-22.4h15.3v2.2h-12.6v7.6h11.6v2.2h-11.6v8.1h12.6v2.2L610.2,400.3L610.2,400.3z"/>
	</g>
</g>
</svg>
